<svg version="1.1" xmlns:serif="http://www.serif.com/" xmlns="http://www.w3.org/2000/svg" xmlns:xlink="http://www.w3.org/1999/xlink" style="" xml:space="preserve" width="288.3" height="172.8"><rect id="backgroundrect" width="100%" height="100%" x="0" y="0" fill="none" stroke="none"/>
<style type="text/css">
	.st0{fill:#252B47;}
	.st1{opacity:0.3629;}
	.st2{fill:#FFFFFF;fill-opacity:0.1059;}
	.st3{fill:#FFFFFF;fill-opacity:0.1686;}
	.st4{fill:#FFFFFF;fill-opacity:0.4118;}
	.st5{fill:#FFFFFF;fill-opacity:0.1412;}
	.st6{fill:#FFFFFF;fill-opacity:0.349;}
	.st7{fill:#FFFFFF;fill-opacity:0.149;}
	.st8{fill:#FFFFFF;fill-opacity:0.1608;}
	.st9{fill:#FFFFFF;fill-opacity:0.2;}
	.st10{fill:#EBEBEB;fill-opacity:9.803920e-02;}
</style>

















<g class="currentLayer" style=""><title>Layer 1</title><g id="Rectangle-1" serif:id="Rectangle 1" class="selected" opacity="0.97">
	<rect x="217" y="126.80000305175781" class="st0" width="308.70001220703125" height="176.3000030517578" transform="matrix(-0.933904, 0, 0, -0.98031, 490.947, 297.046)" stroke-width="0" id="svg_1" opacity="0.97"/>
</g><g id="svg_2">
	<g class="st1" id="svg_3">
		<g id="svg_4">
			<path class="st2" d="M15.235270929694366,-0.13322019502380789 h4.458347993731309 L55.00974780321121,15.746513967990495 L35.222696870565414,-0.13322019502380789 h1.4026263713389397 l20.23789589548187,16.180296962737657 l-2.454596239417839,-16.180296962737657 h0.8515946209877967 l2.5547837435304643,16.731329907418058 l29.0043108656414,-16.731329907418058 h1.7532829940319061 l-30.256655861378476,17.432641958474733 l0.05009380057593882,0.05009380057593882 l24.746337880135343,4.308066976428222 l6.111443483650589,-21.79080292582512 h0.9016883730441094 l-6.161537474572754,21.941083943128206 l24.7964309155941,4.308066976428222 l-0.05009380057593882,-0.10018760115187764 l0.20037520230375527,-0.10018760115187764 L90.37597354030913,-0.13322019502380789 h1.0519697486459734 L109.16114847636527,24.86358591914177 l-0.951782184816885,-24.996806879282758 h0.8515946209877967 l0.951782184816885,24.445773934602357 l8.015007972717285,-24.445773934602357 h0.9016883730441094 l-8.215382980942536,25.046899914741516 l26.249151875019834,-13.274856954813004 l1.4026263713389397,-11.772042959928513 h0.8515946209877967 l-1.352532619282627,11.271104961633682 l6.512193977832794,-3.30619074097271 V8.833569973707199 l-6.61238148194542,3.3562844930290225 l-2.705065238565254,22.542209923267365 l9.317446959376525,-12.824012947440337 v1.4527202428281782 l-8.666226988315202,11.872230941772841 l-0.7013131856694699,-0.5009379982948303 l-0.05009380057593882,0.25046899914741516 l0.5510318100676059,0.20037520230375527 l-0.15028140546009539,0.40075040460751055 l0,0 l0.4508441865220547,-0.05009380057593882 l0.25046899914741516,2.304314744383049 l8.115195954561614,19.486488898039624 l-0.8015008092150211,0.35065659283473494 l-7.0131319761276245,-16.881610924721144 l1.7532829940319061,17.282360941171646 l5.660599476277923,-0.4508441865220547 l0,0.15028140546009539 l0.4508441865220547,0.10018760115187764 l-3.857222491323853,22.842771957873538 l0.05009380057593882,0.4508441865220547 l3.95741023430233,0.9016883730441094 v0.9016883730441094 l-4.458347993731309,-1.0018759965896606 l-0.10018760115187764,0.20037520230375527 l-0.05009380057593882,-0.05009380057593882 l0,0 l0.05009380057593882,0.40075040460751055 l-0.05009380057593882,0 l-0.4508441865220547,3.907316482246017 h-0.8515946209877967 l0.4508441865220547,-3.857222491323853 l-19.08573697066231,1.3024387477933885 l-0.8515946209877967,2.5046899914741516 h-0.9016883730441094 l0.8015008092150211,-2.454596239417839 l-9.818384957671356,0.7013131856694699 l0.05009380057593882,1.8033767460882189 h-0.8515946209877967 l-0.05009380057593882,-1.7031892419755934 l-17.08198497748299,1.202251243680763 l0.40075040460751055,0.5510318100676059 h-1.0519697486459734 l-0.35065659283473494,-0.4508441865220547 l-0.4508441865220547,0.05009380057593882 l0,-0.20037520230375527 l-1.1020636201352119,0.6011256218403815 h-1.7532829940319061 l1.8033767460882189,-1.0519697486459734 l-34.865283916949465,-8.76641497015953 l1.502813994884491,9.818384957671356 h-0.8515946209877967 l-1.502813994884491,-9.768290966749191 l-20.989302892924115,5.9611619886158 l4.758910983800888,3.80712873926754 h-1.4026263713389397 l-4.4082544805408475,-3.5065659880638123 l-12.42326197552643,3.5065659880638123 h-2.5547837435304643 l-15.72945295536499,-3.556659740120125 v-0.9016883730441094 l16.180296962737657,3.656847483098602 L0.10694317815451626,58.47652484035416 v-3.1058154938816074 L15.686114937067032,2.020813244670677 L0.10694317815451626,23.410864959716037 v-1.4527202428281782 L15.185176938772202,1.219312375739193 L0.10694317815451626,8.833569973707199 v-0.951782184816885 L15.686114937067032,0.01706120670400857 L15.235270929694366,-0.13322019502380789 zM17.38930489564018,85.82773878288117 l12.623637939215087,-3.556659740120125 L1.910319983959198,59.77896287154999 L17.38930489564018,85.82773878288117 zM91.02718682312661,84.52530457353896 l-0.15028140546009539,0.5510318100676059 l17.282360941171646,-1.202251243680763 l-0.8015008092150211,-21.590426962136462 L91.02718682312661,84.52530457353896 zM83.76358584785157,61.281776866434484 l6.261724978685379,23.143335903406523 l0.20037520230375527,-0.25046899914741516 l8.86660295200386,-27.551589906215668 l-2.454596239417839,-1.6030016184300422 L83.76358584785157,61.281776866434484 zM68.1844186871067,68.84594369816932 l20.939207946538545,15.478983956217576 l-6.161537474572754,-22.642397905111693 L68.1844186871067,68.84594369816932 zM53.95777877116279,75.75888960337943 l0.05009380057593882,0.10018760115187764 l33.66303195667115,8.465851980089951 l-20.338081966399386,-15.02813994884491 L53.95777877116279,75.75888960337943 zM108.96076869082299,83.82398678970185 l10.118947947740935,-0.7013131856694699 l3.7570349872112274,-11.471479969858933 L108.15927247977561,62.433935791254044 L108.96076869082299,83.82398678970185 zM120.03150151062164,83.02249057865447 l18.885362917900466,-1.3024387477933885 l0,-0.10018760115187764 L123.63825356960297,72.10204068708572 L120.03150151062164,83.02249057865447 zM31.014816920518115,81.97051772475243 l21.039395928382874,-5.9611619886158 L1.7600384889244083,58.52661787581292 L31.014816920518115,81.97051772475243 zM91.87878753519362,81.92042086744004 l14.927951967000581,-20.388176912784957 l-6.912944472014999,-4.458347993731309 L91.87878753519362,81.92042086744004 zM127.64575755596161,59.879152764321134 l-3.7069412351549147,11.321198952555847 l15.52907794713974,9.718196975827027 l0.05009380057593882,-0.20037520230375527 l-2.154033488214111,-21.640521908522032 L127.64575755596161,59.879152764321134 zM138.21555237746543,59.07765273142013 l1.8534706175774573,18.434517955064393 l3.1559094848037716,-18.835267971514895 L138.21555237746543,59.07765273142013 zM3.162664979696274,58.12586977028923 l49.5928618311882,17.232267905712888 l0.05009380057593882,0 l-11.822136950850677,-25.046899914741516 L3.162664979696274,58.12586977028923 zM53.55702684378548,74.85719967770729 l7.413882470309829,-10.269228965044022 l-18.785174936056137,-13.875982934952162 L53.55702684378548,74.85719967770729 zM55.00974780321121,74.25607560849494 l11.471479969858933,-5.560411972165298 l-4.8590984879135135,-3.6067534921764377 L55.00974780321121,74.25607560849494 zM108.61011362075806,61.43205979466438 l-0.15028140546009539,0.15028140546009539 l14.72757695877533,9.217258977532197 l3.556659740120125,-10.820260954261016 L108.61011362075806,61.43205979466438 zM62.173162707568736,64.38759092712098 l5.259848982095718,3.857222491323853 l15.328702938914489,-7.463975983500291 L77.90261279654351,42.89735385775566 l-0.20037520230375527,-0.10018760115187764 L62.173162707568736,64.38759092712098 zM42.63658077407035,49.960578869342044 l18.785174936056137,13.875982934952162 l15.02813994884491,-20.839019964694216 L42.63658077407035,49.960578869342044 zM108.20936169338074,60.58046672630462 l24.84652395105286,-23.29361692070961 l-31.809562891721725,15.478983956217576 l-1.1020636201352119,3.4564722360074995 l7.564163965344619,4.8590984879135135 l0.05009380057593882,-0.05009380057593882 l-0.05009380057593882,-0.40075040460751055 L108.20936169338074,60.58046672630462 zM109.61198961734772,60.48027683353348 l17.382548923015975,-1.4026263713389397 l7.063225967049789,-21.540333926677704 L109.61198961734772,60.48027683353348 zM83.56321370601654,60.43018379807472 l12.272980958223343,-5.9611619886158 l-16.831515978335574,-10.87035494518318 L83.56321370601654,60.43018379807472 zM127.9463234124214,59.02755587410775 l9.317446959376525,-0.7514069974422455 l-2.0037519931793213,-20.13770791363754 l-0.25046899914741516,-0.6512193738966943 L127.9463234124214,59.02755587410775 zM0.9585377394258501,57.324369737388224 l0.6011256218403815,0.20037520230375527 l39.02307083153801,-8.015007972717285 L25.905250866652295,38.6393808722496 L0.9585377394258501,57.324369737388224 zM0.7080687402784349,56.47277284717484 l24.946711932897188,-18.73508190059738 l-8.515945971012115,-37.67053594302979 L0.7080687402784349,56.47277284717484 zM97.5393808009594,54.56921074676666 l1.8033767460882189,1.1521573721915246 l0.8015008092150211,-2.454596239417839 L97.5393808009594,54.56921074676666 zM78.65401979398575,42.39641585946083 l18.03376793861389,11.621761942625426 l3.80712873926754,-1.8534706175774573 l4.057597977280807,-12.623637939215087 L78.65401979398575,42.39641585946083 zM105.55438877367669,39.39078786969185 l-3.95741023430233,12.222886967301179 L133.0058002526821,36.38515987992287 L105.55438877367669,39.39078786969185 zM41.38423577833328,49.00879590821114 l0.35065659283473494,0.25046899914741516 l33.963597813130946,-7.0131319761276245 l-38.922880938766866,-3.0557217418252947 L41.38423577833328,49.00879590821114 zM39.881421783448786,47.906733840703964 l-4.157785481393432,-8.76641497015953 l-8.666226988315202,-0.7013131856694699 L39.881421783448786,47.906733840703964 zM82.8118067085743,22.509176944970704 l-23.69436693716011,-4.107691490471268 l18.885362917900466,23.243523885250852 l-0.15028140546009539,-0.30056281092019077 l0.30056281092019077,-0.15028140546009539 l-0.5510318100676059,-0.15028140546009539 L82.8118067085743,22.509176944970704 zM34.0204449102871,33.4797179610714 l2.304314744383049,4.8590984879135135 l40.42569493365136,3.1559094848037716 L57.965282757521436,18.351391941308975 L34.0204449102871,33.4797179610714 zM79.75608186149293,41.39453986287117 l25.147087896585845,-2.8052527426778795 l3.4564722360074995,-10.770166963338852 L79.75608186149293,41.39453986287117 zM78.50373686575585,40.993787935493856 l29.855903934001162,-14.126451934099578 l-24.696242933749772,-4.257972985506058 L78.50373686575585,40.993787935493856 zM110.16302447295493,27.518556927919008 l-0.25046899914741516,0 l-0.05009380057593882,0.15028140546009539 l-0.40075040460751055,-0.15028140546009539 l-0.10018760115187764,0 l-3.5065659880638123,10.970541971564103 l27.651777888059996,-3.0557217418252947 L110.11292761564255,27.318182875157163 L110.16302447295493,27.518556927919008 zM27.408064861536786,37.63750487565994 l7.91482046860466,0.6011256218403815 l-2.053845745235634,-4.308066976428222 L27.408064861536786,37.63750487565994 zM25.905250866652295,37.73769094657746 l0.20037520230375527,0.25046899914741516 L25.905250866652295,37.73769094657746 L25.905250866652295,37.73769094657746 zM26.406188864947126,37.23675294828263 l6.512193977832794,-4.107691490471268 L18.691742926836014,2.972595489204025 L26.406188864947126,37.23675294828263 zM110.36339661478996,26.115930914878845 l-0.10018760115187764,0.35065659283473494 L134.1579515337944,34.78215981412086 l2.6549714865089413,-22.091364960431292 L110.36339661478996,26.115930914878845 zM57.06359283184929,17.59998494386673 L18.34108594584427,0.21743640900776384 l15.328702938914489,32.460783818246455 l23.69436693716011,-14.927951967000581 l-0.05009380057593882,0 l-0.25046899914741516,0.05009380057593882 L57.06359283184929,17.59998494386673 z" stroke-width="0" id="svg_5"/>
		</g>
		<g id="svg_6">
			<path class="st2" d="M159.54869362711906,-0.13322019502380789 h4.458347993731309 l35.366221915244296,15.879734928131484 l-19.837143968104556,-15.879734928131484 h1.4026263713389397 l20.23789589548187,16.180296962737657 l-2.454596239417839,-16.180296962737657 h0.8515946209877967 l2.5547837435304643,16.731329907418058 l29.0043108656414,-16.731329907418058 h1.7532829940319061 l-30.256655861378476,17.432641958474733 l0.05009380057593882,0.05009380057593882 l24.746337880135343,4.308066976428222 l6.111443483650589,-21.79080292582512 h0.9016883730441094 l-6.161537474572754,21.941083943128206 l24.7964309155941,4.308066976428222 L252.97363030910492,25.96564989757576 L253.17400555619602,25.86546191573143 L234.6893933713436,-0.13322019502380789 h1.0519697486459734 L253.47456830739975,24.86358591914177 L252.5227860628664,-0.13322019502380789 h0.8515946209877967 l0.951782184816885,24.445773934602357 l8.015007972717285,-24.445773934602357 h0.9016883730441094 l-8.215382980942536,25.046899914741516 l26.249151875019834,-13.274856954813004 l1.4026263713389397,-11.772042959928513 h0.8515946209877967 l-1.352532619282627,11.271104961633682 l6.512193977832794,-3.30619074097271 V8.833569973707199 l-6.61238148194542,3.3562844930290225 l-2.705065238565254,22.542209923267365 l9.317446959376525,-12.824012947440337 v1.4527202428281782 L280.0743752524845,35.28309781241569 l-0.7013131856694699,-0.5009379982948303 l-0.05009380057593882,0.25046899914741516 l0.5510318100676059,0.20037520230375527 l-0.15028140546009539,0.40075040460751055 l0,0 l0.4508441865220547,-0.05009380057593882 l0.25046899914741516,2.304314744383049 L288.5402281880379,57.42455580830574 l-0.8015008092150211,0.35065659283473494 L280.72559617900924,40.89360186457634 l1.7532829940319061,17.282360941171646 l5.660599476277923,-0.4508441865220547 l0,0.15028140546009539 l0.4508441865220547,0.10018760115187764 l-3.857222491323853,22.842771957873538 l0.05009380057593882,0.4508441865220547 l3.95741023430233,0.9016883730441094 v0.9016883730441094 l-4.458347993731309,-1.0018759965896606 l-0.10018760115187764,0.20037520230375527 l-0.05009380057593882,-0.05009380057593882 l0,0 l0.05009380057593882,0.40075040460751055 l-0.05009380057593882,0 l-0.4508441865220547,3.907316482246017 h-0.8515946209877967 l0.4508441865220547,-3.857222491323853 l-19.08573697066231,1.3024387477933885 l-0.8515946209877967,2.5046899914741516 h-0.9016883730441094 l0.8015008092150211,-2.454596239417839 l-9.818384957671356,0.7013131856694699 l0.05009380057593882,1.8033767460882189 H252.5227860628664 L252.4726923108101,84.725676715374 l-17.08198497748299,1.202251243680763 l0.40075040460751055,0.5510318100676059 h-1.0519697486459734 l-0.35065659283473494,-0.4508441865220547 l-0.4508441865220547,0.05009380057593882 l0,-0.20037520230375527 l-1.1020636201352119,0.6011256218403815 h-1.7532829940319061 l1.8033767460882189,-1.0519697486459734 l-34.865283916949465,-8.76641497015953 l1.502813994884491,9.818384957671356 h-0.8515946209877967 l-1.502813994884491,-9.768290966749191 l-20.989302892924115,5.9611619886158 l4.758910983800888,3.80712873926754 h-1.4026263713389397 l-4.4082544805408475,-3.5065659880638123 l-12.42326197552643,3.5065659880638123 h-2.5547837435304643 l-15.72945295536499,-3.556659740120125 v-0.9016883730441094 l16.180296962737657,3.656847483098602 l-16.180296962737657,-27.200932925223924 v-3.1058154938816074 l15.579171938061904,-53.29980378294067 l-15.579171938061904,21.390052909374617 v-1.4527202428281782 l15.078233939767074,-20.7388338937767 L144.42036760735664,8.833569973707199 v-0.951782184816885 l15.579171938061904,-7.91482046860466 L159.54869362711906,-0.13322019502380789 zM161.70272854852828,85.82773878288117 l12.623637939215087,-3.556659740120125 l-28.102620939969256,-22.492116887808606 L161.70272854852828,85.82773878288117 zM235.34061238694153,84.52530457353896 l-0.15028140546009539,0.5510318100676059 l17.282360941171646,-1.202251243680763 l-0.8015008092150211,-21.590426962136462 L235.34061238694153,84.52530457353896 zM228.0770114116665,61.281776866434484 l6.261724978685379,23.143335903406523 l0.20037520230375527,-0.25046899914741516 l8.86660295200386,-27.551589906215668 l-2.454596239417839,-1.6030016184300422 L228.0770114116665,61.281776866434484 zM212.49783851814118,68.84594369816932 l20.939207946538545,15.478983956217576 l-6.161537474572754,-22.642397905111693 L212.49783851814118,68.84594369816932 zM198.2712024240509,75.75888960337943 l0.05009380057593882,0.10018760115187764 l33.66303195667115,8.465851980089951 l-20.338081966399386,-15.02813994884491 L198.2712024240509,75.75888960337943 zM253.32428681236496,83.82398678970185 l10.118947947740935,-0.7013131856694699 l3.7570349872112274,-11.471479969858933 L252.4726923108101,62.433935791254044 L253.32428681236496,83.82398678970185 zM264.3950162880417,83.02249057865447 l18.885362917900466,-1.3024387477933885 l0,-0.10018760115187764 l-15.328702938914489,-9.56791595852394 L264.3950162880417,83.02249057865447 zM175.32824057340622,81.97051772475243 l21.039395928382874,-5.9611619886158 l-50.29417579317169,-17.482736904860303 L175.32824057340622,81.97051772475243 zM236.1922073662281,81.92042086744004 l14.927951967000581,-20.388176912784957 l-6.912944472014999,-4.458347993731309 L236.1922073662281,81.92042086744004 zM271.9591812088497,59.879152764321134 l-3.7069412351549147,11.321198952555847 l15.52907794713974,9.718196975827027 l0.05009380057593882,-0.20037520230375527 l-2.154033488214111,-21.640521908522032 L271.9591812088497,59.879152764321134 zM282.5289722084999,59.07765273142013 l1.8534706175774573,18.434517955064393 l3.1559094848037716,-18.835267971514895 L282.5289722084999,59.07765273142013 zM147.47608481073075,58.12586977028923 l49.5928618311882,17.232267905712888 l0.05009380057593882,0 l-11.822136950850677,-25.046899914741516 L147.47608481073075,58.12586977028923 zM197.87045049667358,74.85719967770729 l7.413882470309829,-10.269228965044022 l-18.785174936056137,-13.875982934952162 L197.87045049667358,74.85719967770729 zM199.37326449155807,74.25607560849494 l11.471479969858933,-5.560411972165298 l-4.8590984879135135,-3.6067534921764377 L199.37326449155807,74.25607560849494 zM252.9235365570486,61.43205979466438 l-0.15028140546009539,0.15028140546009539 L267.500832259655,70.74950962043113 l3.556659740120125,-10.820260954261016 L252.9235365570486,61.43205979466438 zM206.48658253860322,64.38759092712098 l5.259848982095718,3.857222491323853 l15.328702938914489,-7.463975983500291 L222.2160364494316,42.89735385775566 l-0.20037520230375527,-0.10018760115187764 L206.48658253860322,64.38759092712098 zM187.00009746241722,49.960578869342044 l18.785174936056137,13.875982934952162 l15.02813994884491,-20.839019964694216 L187.00009746241722,49.960578869342044 zM252.57287981492271,60.58046672630462 l24.84652395105286,-23.29361692070961 l-31.809562891721725,15.478983956217576 l-1.1020636201352119,3.4564722360074995 l7.564163965344619,4.8590984879135135 l0.05009380057593882,-0.05009380057593882 l-0.05009380057593882,-0.40075040460751055 L252.57287981492271,60.58046672630462 zM253.92541255363827,60.48027683353348 l17.382548923015975,-1.4026263713389397 l7.063225967049789,-21.540333926677704 L253.92541255363827,60.48027683353348 zM227.87663735890465,60.43018379807472 l12.272980958223343,-5.9611619886158 l-16.831515978335574,-10.87035494518318 L227.87663735890465,60.43018379807472 zM272.2597432434559,59.02755587410775 l9.317446959376525,-0.7514069974422455 l-2.0037519931793213,-20.13770791363754 l-0.25046899914741516,-0.6512193738966943 L272.2597432434559,59.02755587410775 zM145.32205753302878,57.324369737388224 l0.6011256218403815,0.20037520230375527 l39.02307083153801,-8.015007972717285 l-14.677482967853166,-10.87035494518318 L145.32205753302878,57.324369737388224 zM145.02149167656898,56.47277284717484 l24.946711932897188,-18.73508190059738 l-8.515945971012115,-37.67053594302979 L145.02149167656898,56.47277284717484 zM241.9029003556965,54.56921074676666 l1.8033767460882189,1.1521573721915246 l0.8015008092150211,-2.454596239417839 L241.9029003556965,54.56921074676666 zM223.01753839325943,42.39641585946083 l18.03376793861389,11.621761942625426 l3.80712873926754,-1.8534706175774573 l4.057597977280807,-12.623637939215087 L223.01753839325943,42.39641585946083 zM249.86781471818406,39.39078786969185 L245.9604983329773,51.613675792456434 L277.31921626186295,36.38515987992287 L249.86781471818406,39.39078786969185 zM185.69765560936776,49.00879590821114 l0.35065659283473494,0.25046899914741516 l33.963597813130946,-7.0131319761276245 l-38.922880938766866,-3.0557217418252947 L185.69765560936776,49.00879590821114 zM184.24493847179565,47.906733840703964 l-4.157785481393432,-8.76641497015953 l-8.666226988315202,-0.7013131856694699 L184.24493847179565,47.906733840703964 zM227.1252303614624,22.509176944970704 l-23.69436693716011,-4.107691490471268 l18.885362917900466,23.243523885250852 l-0.15028140546009539,-0.30056281092019077 l0.30056281092019077,-0.15028140546009539 l-0.5510318100676059,-0.15028140546009539 L227.1252303614624,22.509176944970704 zM178.3338685631752,33.4797179610714 l2.304314744383049,4.8590984879135135 l40.42569493365136,3.1559094848037716 L202.27870641040954,18.351391941308975 L178.3338685631752,33.4797179610714 zM224.06950742530785,41.39453986287117 l25.147087896585845,-2.8052527426778795 L252.6730675579012,27.86921390891075 L224.06950742530785,41.39453986287117 zM222.81716242957077,40.993787935493856 L252.6730675579012,26.91743094777985 l-24.696242933749772,-4.257972985506058 L222.81716242957077,40.993787935493856 zM254.4764443039894,27.518556927919008 l-0.25046899914741516,0 l-0.05009380057593882,0.15028140546009539 l-0.40075040460751055,-0.15028140546009539 l-0.10018760115187764,0 l-3.5065659880638123,10.970541971564103 l27.651777888059996,-3.0557217418252947 L254.4764443039894,27.318182875157163 L254.4764443039894,27.518556927919008 zM171.7214885144249,37.63750487565994 l7.91482046860466,0.6011256218403815 l-2.053845745235634,-4.308066976428222 L171.7214885144249,37.63750487565994 zM170.2186745195404,37.73769094657746 l0.20037520230375527,0.25046899914741516 L170.2186745195404,37.73769094657746 L170.2186745195404,37.73769094657746 zM170.76970173144036,37.23675294828263 l6.512193977832794,-4.107691490471268 l-14.2266389604805,-30.156467879534148 L170.76970173144036,37.23675294828263 zM254.67681931221466,26.115930914878845 l-0.10018760115187764,0.35065659283473494 L278.52146822214127,34.78215981412086 l2.6549714865089413,-22.091364960431292 L254.67681931221466,26.115930914878845 zM201.3770164847374,17.59998494386673 l-38.67241193961945,-17.382548923015975 l15.328702938914489,32.460783818246455 l23.69436693716011,-14.927951967000581 l-0.05009380057593882,0 l-0.25046899914741516,0.05009380057593882 L201.3770164847374,17.59998494386673 z" stroke-width="0" id="svg_7"/>
		</g>
		<g id="svg_8">
			<path class="st2" d="M159.54869362711906,86.46278496527748 h4.458347993731309 l35.366221915244296,15.879734928131484 l-19.837143968104556,-15.879734928131484 h1.4026263713389397 l20.23789589548187,16.180296962737657 l-2.454596239417839,-16.180296962737657 h0.8515946209877967 l2.5547837435304643,16.731329907418058 l29.0043108656414,-16.731329907418058 h1.7532829940319061 l-30.256655861378476,17.432641958474733 l0.05009380057593882,0.05009380057593882 l24.746337880135343,4.308066976428222 l6.111443483650589,-21.79080292582512 h0.9016883730441094 l-6.161537474572754,21.941083943128206 l24.7964309155941,4.308066976428222 L252.97363030910492,112.56165391206741 l0.20037520230375527,-0.10018760115187764 l-18.484612901449964,-25.99868287587242 h1.0519697486459734 L253.47456830739975,111.45959184456024 l-0.951782184816885,-24.996806879282758 h0.8515946209877967 l0.951782184816885,24.445773934602357 l8.015007972717285,-24.445773934602357 h0.9016883730441094 l-8.215382980942536,25.046899914741516 l26.249151875019834,-13.274856954813004 l1.4026263713389397,-11.772042959928513 h0.8515946209877967 l-1.352532619282627,11.271104961633682 l6.512193977832794,-3.30619074097271 v0.951782184816885 l-6.61238148194542,3.3562844930290225 l-2.705065238565254,22.542209923267365 l9.317446959376525,-12.824012947440337 v1.4527202428281782 L280.0743752524845,121.87909991598053 l-0.7013131856694699,-0.5009379982948303 l-0.05009380057593882,0.25046899914741516 l0.5510318100676059,0.20037520230375527 l-0.15028140546009539,0.40075040460751055 l0,0 l0.4508441865220547,-0.05009380057593882 l0.25046899914741516,2.304314744383049 L288.5402281880379,144.0205603005291 l-0.8015008092150211,0.35065659283473494 l-7.0131319761276245,-16.881610924721144 l1.7532829940319061,17.282360941171646 l5.660599476277923,-0.4508441865220547 l0,0.15028140546009539 l0.4508441865220547,0.10018760115187764 l-3.857222491323853,22.842771957873538 l0.05009380057593882,0.4508441865220547 l3.95741023430233,0.9016883730441094 v0.9016883730441094 l-4.458347993731309,-1.0018759965896606 l-0.10018760115187764,0.20037520230375527 l-0.05009380057593882,-0.05009380057593882 l0,0 l0.05009380057593882,0.40075040460751055 l-0.05009380057593882,0 l-0.4508441865220547,3.907316482246017 h-0.8515946209877967 l0.4508441865220547,-3.857222491323853 l-19.08573697066231,1.3024387477933885 l-0.8515946209877967,2.5046899914741516 h-0.9016883730441094 l0.8015008092150211,-2.454596239417839 L253.32428681236496,171.2715876944069 l0.05009380057593882,1.8033767460882189 H252.5227860628664 L252.4726923108101,171.32168072986565 l-17.08198497748299,1.202251243680763 l0.40075040460751055,0.5510318100676059 h-1.0519697486459734 l-0.35065659283473494,-0.4508441865220547 l-0.4508441865220547,0.05009380057593882 l0,-0.20037520230375527 l-1.1020636201352119,0.6011256218403815 h-1.7532829940319061 l1.8033767460882189,-1.0519697486459734 l-34.865283916949465,-8.76641497015953 l1.502813994884491,9.818384957671356 h-0.8515946209877967 l-1.502813994884491,-9.768290966749191 l-20.989302892924115,5.9611619886158 l4.758910983800888,3.80712873926754 h-1.4026263713389397 l-4.4082544805408475,-3.5065659880638123 l-12.42326197552643,3.5065659880638123 h-2.5547837435304643 l-15.72945295536499,-3.556659740120125 v-0.9016883730441094 l16.180296962737657,3.656847483098602 l-16.180296962737657,-27.200932925223924 v-3.1058154938816074 l15.579171938061904,-53.29980378294067 l-15.579171938061904,21.390052909374617 v-1.4527202428281782 l15.078233939767074,-20.7388338937767 l-15.078233939767074,7.6643514694572445 v-0.951782184816885 l15.579171938061904,-7.91482046860466 L159.54869362711906,86.46278496527748 zM161.70272854852828,172.42374470829964 l12.623637939215087,-3.556659740120125 l-28.102620939969256,-22.492116887808606 L161.70272854852828,172.42374470829964 zM235.34061238694153,171.1213066771038 l-0.15028140546009539,0.5510318100676059 l17.282360941171646,-1.202251243680763 L251.6210976898223,148.8796587884426 L235.34061238694153,171.1213066771038 zM228.0770114116665,147.82768903979664 l6.261724978685379,23.143335903406523 l0.20037520230375527,-0.25046899914741516 l8.86660295200386,-27.551589906215668 l-2.454596239417839,-1.6030016184300422 L228.0770114116665,147.82768903979664 zM212.49783851814118,155.3918527662754 L233.43704837560654,170.8708376779564 L227.32560441422424,148.2284394145459 L212.49783851814118,155.3918527662754 zM198.2712024240509,162.3047967605587 l0.05009380057593882,0.10018760115187764 l33.66303195667115,8.465851980089951 l-20.338081966399386,-15.02813994884491 L198.2712024240509,162.3047967605587 zM253.32428681236496,170.36989967966156 L263.4432342823742,169.66858571767807 l3.7570349872112274,-11.471479969858933 L252.4726923108101,148.97984641198815 L253.32428681236496,170.36989967966156 zM264.3950162880417,169.6184926822193 l18.885362917900466,-1.3024387477933885 l0,-0.10018760115187764 L267.95167722249107,158.6479497551918 L264.3950162880417,169.6184926822193 zM175.32824057340622,168.56652173924408 l21.039395928382874,-5.9611619886158 L146.07346453047103,145.12262380123138 L175.32824057340622,168.56652173924408 zM236.1922073662281,168.46633375739975 L251.12015969152748,148.12825179100037 l-6.912944472014999,-4.458347993731309 L236.1922073662281,168.46633375739975 zM271.9591812088497,146.47515630108109 l-3.7069412351549147,11.321198952555847 l15.52907794713974,9.718196975827027 l0.05009380057593882,-0.20037520230375527 L281.67737722921333,145.72374930363884 L271.9591812088497,146.47515630108109 zM282.5289722084999,145.62356179952621 l1.8534706175774573,18.434517955064393 L287.5383521914482,145.222811305344 L282.5289722084999,145.62356179952621 zM147.47608481073075,144.67177979385872 l49.5928618311882,17.232267905712888 l0.05009380057593882,0 l-11.822136950850677,-25.046899914741516 L147.47608481073075,144.67177979385872 zM197.87045049667358,161.40310874581337 L205.28433440017852,151.13387978076935 l-18.785174936056137,-13.875982934952162 L197.87045049667358,161.40310874581337 zM199.37326449155807,160.85207675659638 l11.471479969858933,-5.560411972165298 L205.98564454030839,151.63481777906418 L199.37326449155807,160.85207675659638 zM252.9235365570486,148.02806428688774 L252.77325506201382,148.12825179100037 L267.500832259655,157.34551076853256 l3.556659740120125,-10.820260954261016 L252.9235365570486,148.02806428688774 zM206.48658253860322,150.9335045933947 l5.259848982095718,3.857222491323853 l15.328702938914489,-7.463975983500291 l-4.8590984879135135,-17.883486921310805 l-0.20037520230375527,-0.10018760115187764 L206.48658253860322,150.9335045933947 zM187.00009746241722,136.5565838392971 l18.785174936056137,13.875982934952162 l15.02813994884491,-20.839019964694216 L187.00009746241722,136.5565838392971 zM252.57287981492271,147.17646954646702 l24.84652395105286,-23.29361692070961 L245.5597478387951,139.36183682084084 l-1.1020636201352119,3.4564722360074995 L252.02184806457157,147.67740754476185 L252.07194181662788,147.62731379270554 L252.02184806457157,147.22656329852333 L252.57287981492271,147.17646954646702 zM253.92541255363827,147.0762820423544 l17.382548923015975,-1.4026263713389397 l7.063225967049789,-21.540333926677704 L253.92541255363827,147.0762820423544 zM227.87663735890465,146.97609429937592 l12.272980958223343,-5.9611619886158 l-16.831515978335574,-10.87035494518318 L227.87663735890465,146.97609429937592 zM272.2597432434559,145.57346780860405 l9.317446959376525,-0.7514069974422455 l-2.0037519931793213,-20.13770791363754 L279.32296825504227,124.08322787284851 L272.2597432434559,145.57346780860405 zM145.32205753302878,143.92037279641647 l0.6011256218403815,0.20037520230375527 l39.02307083153801,-8.015007972717285 l-14.677482967853166,-10.87035494518318 L145.32205753302878,143.92037279641647 zM145.02149167656898,143.0687778171299 l24.946711932897188,-18.73508190059738 l-8.515945971012115,-37.67053594302979 L145.02149167656898,143.0687778171299 zM241.9029003556965,141.11511981487274 l1.8033767460882189,1.1521573721915246 l0.8015008092150211,-2.454596239417839 L241.9029003556965,141.11511981487274 zM223.01753839325943,128.94232683849373 l18.03376793861389,11.621761942625426 l3.80712873926754,-1.8534706175774573 L248.91603257068996,126.08697986602783 L223.01753839325943,128.94232683849373 zM249.86781471818406,125.9867918841835 L245.9604983329773,138.2096798069481 l31.358717928885653,-15.22851495707016 L249.86781471818406,125.9867918841835 zM185.69765560936776,135.6048018336296 l0.35065659283473494,0.25046899914741516 l33.963597813130946,-7.0131319761276245 l-38.922880938766866,-3.0557217418252947 L185.69765560936776,135.6048018336296 zM184.24493847179565,134.50273785519562 l-4.157785481393432,-8.76641497015953 l-8.666226988315202,-0.7013131856694699 L184.24493847179565,134.50273785519562 zM227.1252303614624,109.0550879240036 l-23.69436693716011,-4.107691490471268 l18.885362917900466,23.243523885250852 l-0.15028140546009539,-0.30056281092019077 l0.30056281092019077,-0.15028140546009539 L221.91547441482544,127.58979386091232 L227.1252303614624,109.0550879240036 zM178.3338685631752,120.07572388648987 l2.304314744383049,4.8590984879135135 l40.42569493365136,3.1559094848037716 l-18.785174936056137,-23.143335903406523 L178.3338685631752,120.07572388648987 zM224.06950742530785,127.99054387736282 l25.147087896585845,-2.8052527426778795 l3.4564722360074995,-10.770166963338852 L224.06950742530785,127.99054387736282 zM222.81716242957077,127.58979386091232 L252.6730675579012,113.51343687319832 l-24.696242933749772,-4.257972985506058 L222.81716242957077,127.58979386091232 zM254.4764443039894,114.0644679069519 l-0.25046899914741516,0 l-0.05009380057593882,0.15028140546009539 l-0.40075040460751055,-0.15028140546009539 l-0.10018760115187764,0 L250.16837752163968,125.08510386943817 l27.651777888059996,-3.0557217418252947 L254.4764443039894,113.914184978722 L254.4764443039894,114.0644679069519 zM171.7214885144249,124.2335088901516 l7.91482046860466,0.6011256218403815 l-2.053845745235634,-4.308066976428222 L171.7214885144249,124.2335088901516 zM170.2186745195404,124.33369687199593 l0.20037520230375527,0.25046899914741516 L170.2186745195404,124.33369687199593 L170.2186745195404,124.33369687199593 zM170.76970173144036,123.8327588737011 l6.512193977832794,-4.107691490471268 l-14.2266389604805,-30.156467879534148 L170.76970173144036,123.8327588737011 zM254.67681931221466,112.66183998298493 l-0.10018760115187764,0.35065659283473494 L278.52146822214127,121.32806888222694 l2.6549714865089413,-22.091364960431292 L254.67681931221466,112.66183998298493 zM201.3770164847374,104.1959908692852 l-38.67241193961945,-17.382548923015975 l15.328702938914489,32.460783818246455 l23.69436693716011,-14.927951967000581 l-0.05009380057593882,0 l-0.25046899914741516,0.05009380057593882 L201.3770164847374,104.1959908692852 z" stroke-width="0" id="svg_9"/>
		</g>
		<g id="svg_10">
			<path class="st2" d="M15.237361937761307,86.46278496527748 h4.458347993731309 L55.06193280220032,102.34251798248215 l-19.837143968104556,-15.879734928131484 h1.4026263713389397 l20.23789589548187,16.180296962737657 l-2.454596239417839,-16.180296962737657 h0.8515946209877967 l2.5547837435304643,16.731329907418058 l29.0043108656414,-16.731329907418058 h1.7532829940319061 l-30.256655861378476,17.432641958474733 l0.05009380057593882,0.05009380057593882 l24.746337880135343,4.308066976428222 l6.111443483650589,-21.79080292582512 h0.9016883730441094 l-6.161537474572754,21.941083943128206 l24.7964309155941,4.308066976428222 L108.66229861974716,112.56165391206741 l0.20037520230375527,-0.10018760115187764 l-18.484612901449964,-25.99868287587242 h1.0519697486459734 l17.73320590400772,24.996806879282758 l-0.951782184816885,-24.996806879282758 h0.8515946209877967 l0.951782184816885,24.445773934602357 l8.015007972717285,-24.445773934602357 h0.9016883730441094 l-8.215382980942536,25.046899914741516 l26.249151875019834,-13.274856954813004 l1.4026263713389397,-11.772042959928513 h0.8515946209877967 l-1.352532619282627,11.271104961633682 l6.512193977832794,-3.30619074097271 v0.951782184816885 l-6.61238148194542,3.3562844930290225 l-2.705065238565254,22.542209923267365 l9.317446959376525,-12.824012947440337 v1.4527202428281782 l-8.666226988315202,11.872230941772841 l-0.7013131856694699,-0.5009379982948303 l-0.05009380057593882,0.25046899914741516 l0.5510318100676059,0.20037520230375527 l-0.15028140546009539,0.40075040460751055 l0,0 l0.4508441865220547,-0.05009380057593882 l0.25046899914741516,2.304314744383049 L144.22889649868011,144.0205603005291 l-0.8015008092150211,0.35065659283473494 l-7.0131319761276245,-16.881610924721144 l1.7532829940319061,17.282360941171646 l5.660599476277923,-0.4508441865220547 l0,0.15028140546009539 l0.4508441865220547,0.10018760115187764 l-3.857222491323853,22.842771957873538 l0.05009380057593882,0.4508441865220547 l3.95741023430233,0.9016883730441094 v0.9016883730441094 l-4.458347993731309,-1.0018759965896606 l-0.10018760115187764,0.20037520230375527 l-0.05009380057593882,-0.05009380057593882 l0,0 l0.05009380057593882,0.40075040460751055 l-0.05009380057593882,0 l-0.4508441865220547,3.907316482246017 h-0.8515946209877967 l0.4508441865220547,-3.857222491323853 l-19.08573697066231,1.3024387477933885 l-0.8515946209877967,2.5046899914741516 h-0.9016883730441094 l0.8015008092150211,-2.454596239417839 l-9.818384957671356,0.7013131856694699 l0.05009380057593882,1.8033767460882189 h-0.8515946209877967 l-0.05009380057593882,-1.7031892419755934 l-17.08198497748299,1.202251243680763 l0.40075040460751055,0.5510318100676059 h-1.0519697486459734 l-0.35065659283473494,-0.4508441865220547 l-0.4508441865220547,0.05009380057593882 l0,-0.20037520230375527 l-1.1020636201352119,0.6011256218403815 h-1.7532829940319061 l1.8033767460882189,-1.0519697486459734 l-34.865283916949465,-8.76641497015953 l1.502813994884491,9.818384957671356 h-0.8515946209877967 l-1.502813994884491,-9.768290966749191 L31.868501952408224,169.217740754842 l4.758910983800888,3.80712873926754 h-1.4026263713389397 l-4.4082544805408475,-3.5065659880638123 l-12.42326197552643,3.5065659880638123 h-2.5547837435304643 L0.15912817714362149,169.4682097539894 v-0.9016883730441094 l16.180296962737657,3.656847483098602 L0.15912817714362149,145.02243629711876 v-3.1058154938816074 l15.579171938061904,-53.29980378294067 L0.15912817714362149,110.0068708851345 v-1.4527202428281782 l15.078233939767074,-20.7388338937767 L0.15912817714362149,95.42957589912567 v-0.951782184816885 l15.579171938061904,-7.91482046860466 L15.237361937761307,86.46278496527748 zM17.441489894629285,172.42374470829964 L30.0150328874588,168.86708568477707 L1.9124112308919905,146.32487504491215 L17.441489894629285,172.42374470829964 zM91.02928260851058,171.1213066771038 l-0.15028140546009539,0.5510318100676059 l17.282360941171646,-1.202251243680763 l-0.8015008092150211,-21.590426962136462 L91.02928260851058,171.1213066771038 zM83.81577084684068,147.82768903979664 l6.261724978685379,23.143335903406523 l0.20037520230375527,-0.25046899914741516 l8.86660295200386,-27.551589906215668 l-2.454596239417839,-1.6030016184300422 L83.81577084684068,147.82768903979664 zM68.2366036860958,155.3918527662754 l20.939207946538545,15.478983956217576 L83.0142746357933,148.2284394145459 L68.2366036860958,155.3918527662754 zM54.0099637701519,162.3047967605587 l0.05009380057593882,0.10018760115187764 l33.66303195667115,8.465851980089951 l-20.338081966399386,-15.02813994884491 L54.0099637701519,162.3047967605587 zM109.0129536898121,170.36989967966156 l10.118947947740935,-0.7013131856694699 l3.7570349872112274,-11.471479969858933 L108.21145747876471,148.97984641198815 L109.0129536898121,170.36989967966156 zM120.08368650961074,169.6184926822193 l18.885362917900466,-1.3024387477933885 l0,-0.10018760115187764 L123.69043856859207,158.6479497551918 L120.08368650961074,169.6184926822193 zM31.06700191950722,168.56652173924408 l21.039395928382874,-5.9611619886158 L1.7621297358572008,145.12262380123138 L31.06700191950722,168.56652173924408 zM91.88087567687035,168.46633375739975 L106.80882955479774,148.12825179100037 l-6.912944472014999,-4.458347993731309 L91.88087567687035,168.46633375739975 zM127.69794255495071,146.47515630108109 l-3.7069412351549147,11.321198952555847 l15.52907794713974,9.718196975827027 l0.05009380057593882,-0.20037520230375527 l-2.154033488214111,-21.640521908522032 L127.69794255495071,146.47515630108109 zM138.21764051914215,145.62356179952621 l1.8534706175774573,18.434517955064393 l3.1559094848037716,-18.835267971514895 L138.21764051914215,145.62356179952621 zM3.214849978685379,144.67177979385872 l49.5928618311882,17.232267905712888 l0.05009380057593882,0 L41.03566884994507,136.90724082028885 L3.214849978685379,144.67177979385872 zM53.559118807315826,161.40310874581337 L60.973002710820765,151.13387978076935 L42.18782777476463,137.25789684581719 L53.559118807315826,161.40310874581337 zM55.06193280220032,160.85207675659638 l11.471479969858933,-5.560411972165298 L61.67431285095063,151.63481777906418 L55.06193280220032,160.85207675659638 zM108.61220176243478,148.02806428688774 L108.46192647791213,148.12825179100037 L123.18950057029724,157.34551076853256 l3.556659740120125,-10.820260954261016 L108.61220176243478,148.02806428688774 zM62.17525084924546,150.9335045933947 l5.259848982095718,3.857222491323853 l15.328702938914489,-7.463975983500291 l-4.8590984879135135,-17.883486921310805 l-0.20037520230375527,-0.10018760115187764 L62.17525084924546,150.9335045933947 zM42.68876577305946,136.5565838392971 l18.785174936056137,13.875982934952162 l15.02813994884491,-20.839019964694216 L42.68876577305946,136.5565838392971 zM108.26154669236985,147.17646954646702 l24.84652395105286,-23.29361692070961 l-31.809562891721725,15.478983956217576 l-1.1020636201352119,3.4564722360074995 l7.564163965344619,4.8590984879135135 l0.05009380057593882,-0.05009380057593882 l-0.05009380057593882,-0.40075040460751055 L108.26154669236985,147.17646954646702 zM109.61407775902444,147.0762820423544 l17.382548923015975,-1.4026263713389397 l7.063225967049789,-21.540333926677704 L109.61407775902444,147.0762820423544 zM83.56530184769326,146.97609429937592 l12.272980958223343,-5.9611619886158 l-16.831515978335574,-10.87035494518318 L83.56530184769326,146.97609429937592 zM127.94841155409813,145.57346780860405 l9.317446959376525,-0.7514069974422455 l-2.0037519931793213,-20.13770791363754 l-0.25046899914741516,-0.6512193738966943 L127.94841155409813,145.57346780860405 zM1.0107227384149553,143.92037279641647 L1.6118484796882626,144.12074780464172 l39.02307083153801,-8.015007972717285 L25.90734091925583,125.23538488674126 L1.0107227384149553,143.92037279641647 zM0.7101599872112274,143.0687778171299 l24.946711932897188,-18.73508190059738 l-8.515945971012115,-37.67053594302979 L0.7101599872112274,143.0687778171299 zM97.59156579994851,141.11511981487274 l1.8033767460882189,1.1521573721915246 l0.8015008092150211,-2.454596239417839 L97.59156579994851,141.11511981487274 zM78.70620479297486,128.94232683849373 l18.03376793861389,11.621761942625426 l3.80712873926754,-1.8534706175774573 L104.65479463338852,126.08697986602783 L78.70620479297486,128.94232683849373 zM105.55648455906066,125.9867918841835 L101.64916664361954,138.2096798069481 l31.358717928885653,-15.22851495707016 L105.55648455906066,125.9867918841835 zM41.38632392001,135.6048018336296 l0.35065659283473494,0.25046899914741516 l33.963597813130946,-7.0131319761276245 l-38.922880938766866,-3.0557217418252947 L41.38632392001,135.6048018336296 zM39.93360678243789,134.50273785519562 l-4.157785481393432,-8.76641497015953 L27.159685914992906,125.08510386943817 L39.93360678243789,134.50273785519562 zM82.81389485025102,109.0550879240036 l-23.69436693716011,-4.107691490471268 l18.885362917900466,23.243523885250852 l-0.15028140546009539,-0.30056281092019077 l0.30056281092019077,-0.15028140546009539 l-0.5510318100676059,-0.15028140546009539 L82.81389485025102,109.0550879240036 zM34.0726299092762,120.07572388648987 l2.304314744383049,4.8590984879135135 l40.42569493365136,3.1559094848037716 l-18.785174936056137,-23.143335903406523 L34.0726299092762,120.07572388648987 zM79.7581776468769,127.99054387736282 l25.147087896585845,-2.8052527426778795 l3.4564722360074995,-10.770166963338852 L79.7581776468769,127.99054387736282 zM78.55592186474496,127.58979386091232 l29.855903934001162,-14.126451934099578 l-24.696242933749772,-4.257972985506058 L78.55592186474496,127.58979386091232 zM110.16511261463165,114.0644679069519 l-0.25046899914741516,0 l-0.05009380057593882,0.15028140546009539 l-0.40075040460751055,-0.15028140546009539 l-0.10018760115187764,0 l-3.5065659880638123,10.970541971564103 l27.651777888059996,-3.0557217418252947 L110.16511261463165,113.914184978722 L110.16511261463165,114.0644679069519 zM27.46024986052589,124.2335088901516 l7.91482046860466,0.6011256218403815 l-2.053845745235634,-4.308066976428222 L27.46024986052589,124.2335088901516 zM25.90734091925583,124.33369687199593 l0.20037520230375527,0.25046899914741516 L25.90734091925583,124.33369687199593 L25.90734091925583,124.33369687199593 zM26.45837386393623,123.8327588737011 l6.512193977832794,-4.107691490471268 l-14.2266389604805,-30.156467879534148 L26.45837386393623,123.8327588737011 zM110.36548475646669,112.66183998298493 l-0.10018760115187764,0.35065659283473494 L134.2101365327835,121.32806888222694 l2.6549714865089413,-22.091364960431292 L110.36548475646669,112.66183998298493 zM57.06568479537964,104.1959908692852 l-38.67241193961945,-17.382548923015975 l15.328702938914489,32.460783818246455 l23.69436693716011,-14.927951967000581 l-0.05009380057593882,0 l-0.25046899914741516,0.05009380057593882 L57.06568479537964,104.1959908692852 z" stroke-width="0" id="svg_11"/>
		</g>
		<g id="svg_12">
			<g id="Ellipse-1" serif:id="Ellipse 1" stroke-width="0">
				<circle class="st3" cx="107.19999694824219" cy="151.8000030517578" r="2.299999952316284" transform="matrix(0.500938, 0, 0, 0.500938, 0.289201, 0.255597)" stroke-width="0" id="svg_13"/>
			</g>
			<g id="Ellipse-1-copy" serif:id="Ellipse 1 copy" stroke-width="0">
				<circle class="st4" cx="52.5" cy="75.80000305175781" r="2.299999952316284" transform="matrix(0.500938, 0, 0, 0.500938, 0.289201, 0.255597)" stroke-width="0" id="svg_14"/>
			</g>
			<g id="Ellipse-1-copy-6" serif:id="Ellipse 1 copy 6" stroke-width="0">
				<circle class="st4" cx="179.8000030517578" cy="169.6999969482422" r="2.299999952316284" transform="matrix(0.500938, 0, 0, 0.500938, 0.289201, 0.255597)" stroke-width="0" id="svg_15"/>
			</g>
			<g id="Ellipse-1-copy-2" serif:id="Ellipse 1 copy 2" stroke-width="0">
				<circle class="st5" cx="215.5" cy="122.5" r="2.299999952316284" transform="matrix(0.500938, 0, 0, 0.500938, 0.289201, 0.255597)" stroke-width="0" id="svg_16"/>
			</g>
			<g id="Ellipse-1-copy-3" serif:id="Ellipse 1 copy 3" stroke-width="0">
				<circle class="st6" cx="219.5" cy="53.29999923706055" r="2.299999952316284" transform="matrix(0.500938, 0, 0, 0.500938, 0.289201, 0.255597)" stroke-width="0" id="svg_17"/>
			</g>
			<g id="Ellipse-1-copy-7" serif:id="Ellipse 1 copy 7" stroke-width="0">
				<circle class="st4" cx="270.20001220703125" cy="71.19999694824219" r="2.299999952316284" transform="matrix(0.500938, 0, 0, 0.500938, 0.289201, 0.255597)" stroke-width="0" id="svg_18"/>
			</g>
			<g id="Ellipse-1-copy-8" serif:id="Ellipse 1 copy 8" stroke-width="0">
				<circle class="st4" cx="278.8999938964844" cy="163.39999389648438" r="2.299999952316284" transform="matrix(0.500938, 0, 0, 0.500938, 0.289201, 0.255597)" stroke-width="0" id="svg_19"/>
			</g>
			<g id="Ellipse-1-copy-9" serif:id="Ellipse 1 copy 9" stroke-width="0">
				<circle class="st4" cx="156.1999969482422" cy="83.9000015258789" r="2.299999952316284" transform="matrix(0.500938, 0, 0, 0.500938, 0.289201, 0.255597)" stroke-width="0" id="svg_20"/>
			</g>
			<g id="Ellipse-1-copy-10" serif:id="Ellipse 1 copy 10" stroke-width="0">
				<circle class="st7" cx="-1.100000023841858" cy="115.5" r="2.299999952316284" transform="matrix(0.500938, 0, 0, 0.500938, 0.289201, 0.255597)" stroke-width="0" id="svg_21"/>
			</g>
			<g id="Ellipse-1-copy-14" serif:id="Ellipse 1 copy 14" stroke-width="0">
				<circle class="st7" cx="288.1000061035156" cy="115.5" r="2.299999952316284" transform="matrix(0.500938, 0, 0, 0.500938, 0.289201, 0.255597)" stroke-width="0" id="svg_22"/>
			</g>
			<g id="Ellipse-1-copy-4" serif:id="Ellipse 1 copy 4" stroke-width="0">
				<circle class="st8" cx="116.4000015258789" cy="35.5" r="2.299999952316284" transform="matrix(0.500938, 0, 0, 0.500938, 0.289201, 0.255597)" stroke-width="0" id="svg_23"/>
			</g>
			<g id="Ellipse-1-copy-11" serif:id="Ellipse 1 copy 11" stroke-width="0">
				<circle class="st9" cx="34.599998474121094" cy="-0.20000000298023224" r="2.299999952316284" transform="matrix(0.500938, 0, 0, 0.500938, 0.289201, 0.255597)" stroke-width="0" id="svg_24"/>
			</g>
			<g id="Ellipse-1-copy-13" serif:id="Ellipse 1 copy 13" stroke-width="0">
				<circle class="st4" cx="34.599998474121094" cy="172.60000610351562" r="2.299999952316284" transform="matrix(0.500938, 0, 0, 0.500938, 0.289201, 0.255597)" stroke-width="0" id="svg_25"/>
			</g>
			<g id="Ellipse-1-copy-12" serif:id="Ellipse 1 copy 12" stroke-width="0">
				<circle class="st9" cx="34.599998474121094" cy="174.3000030517578" r="2.299999952316284" transform="matrix(0.500938, 0, 0, 0.500938, 0.289201, 0.255597)" stroke-width="0" id="svg_26"/>
			</g>
		</g>
		<g id="svg_27">
			<g id="Ellipse-11" serif:id="Ellipse 1" stroke-width="0">
				<circle class="st3" cx="-105.5999984741211" cy="151.8000030517578" r="2.299999952316284" transform="matrix(0.500938, 0, 0, 0.500938, 251.773, 0.255597)" stroke-width="0" id="svg_28"/>
			</g>
			<g id="Ellipse-1-copy1" serif:id="Ellipse 1 copy" stroke-width="0">
				<circle class="st4" cx="-160.39999389648438" cy="75.80000305175781" r="2.299999952316284" transform="matrix(0.500938, 0, 0, 0.500938, 251.773, 0.255597)" stroke-width="0" id="svg_29"/>
			</g>
			<g id="Ellipse-1-copy-61" serif:id="Ellipse 1 copy 6" stroke-width="0">
				<circle class="st4" cx="-33.099998474121094" cy="169.6999969482422" r="2.299999952316284" transform="matrix(0.500938, 0, 0, 0.500938, 251.773, 0.255597)" stroke-width="0" id="svg_30"/>
			</g>
			<g id="Ellipse-1-copy-21" serif:id="Ellipse 1 copy 2" stroke-width="0">
				<circle class="st5" cx="2.700000047683716" cy="122.5" r="2.299999952316284" transform="matrix(0.500938, 0, 0, 0.500938, 251.773, 0.255597)" stroke-width="0" id="svg_31"/>
			</g>
			<g id="Ellipse-1-copy-31" serif:id="Ellipse 1 copy 3" stroke-width="0">
				<circle class="st6" cx="6.699999809265137" cy="53.29999923706055" r="2.299999952316284" transform="matrix(0.500938, 0, 0, 0.500938, 251.773, 0.255597)" stroke-width="0" id="svg_32"/>
			</g>
			<g id="Ellipse-1-copy-71" serif:id="Ellipse 1 copy 7" stroke-width="0">
				<circle class="st4" cx="57.400001525878906" cy="71.19999694824219" r="2.299999952316284" transform="matrix(0.500938, 0, 0, 0.500938, 251.773, 0.255597)" stroke-width="0" id="svg_33"/>
			</g>
			<g id="Ellipse-1-copy-81" serif:id="Ellipse 1 copy 8" stroke-width="0">
				<circle class="st4" cx="66" cy="163.39999389648438" r="2.299999952316284" transform="matrix(0.500938, 0, 0, 0.500938, 251.773, 0.255597)" stroke-width="0" id="svg_34"/>
			</g>
			<g id="Ellipse-1-copy-91" serif:id="Ellipse 1 copy 9" stroke-width="0">
				<circle class="st4" cx="-56.70000076293945" cy="83.9000015258789" r="2.299999952316284" transform="matrix(0.500938, 0, 0, 0.500938, 251.773, 0.255597)" stroke-width="0" id="svg_35"/>
			</g>
			<g id="Ellipse-1-copy-101" serif:id="Ellipse 1 copy 10" stroke-width="0">
				<circle class="st7" cx="-213.89999389648438" cy="115.5" r="2.299999952316284" transform="matrix(0.500938, 0, 0, 0.500938, 251.773, 0.255597)" stroke-width="0" id="svg_36"/>
			</g>
			<g id="Ellipse-1-copy-141" serif:id="Ellipse 1 copy 14" stroke-width="0">
				<circle class="st7" cx="75.19999694824219" cy="115.5" r="2.299999952316284" transform="matrix(0.500938, 0, 0, 0.500938, 251.773, 0.255597)" stroke-width="0" id="svg_37"/>
			</g>
			<g id="Ellipse-1-copy-41" serif:id="Ellipse 1 copy 4" stroke-width="0">
				<circle class="st8" cx="-96.4000015258789" cy="35.5" r="2.299999952316284" transform="matrix(0.500938, 0, 0, 0.500938, 251.773, 0.255597)" stroke-width="0" id="svg_38"/>
			</g>
			<g id="Ellipse-1-copy-111" serif:id="Ellipse 1 copy 11" stroke-width="0">
				<circle class="st9" cx="-178.1999969482422" cy="-0.20000000298023224" r="2.299999952316284" transform="matrix(0.500938, 0, 0, 0.500938, 251.773, 0.255597)" stroke-width="0" id="svg_39"/>
			</g>
			<g id="Ellipse-1-copy-131" serif:id="Ellipse 1 copy 13" stroke-width="0">
				<circle class="st4" cx="-178.1999969482422" cy="172.60000610351562" r="2.299999952316284" transform="matrix(0.500938, 0, 0, 0.500938, 251.773, 0.255597)" stroke-width="0" id="svg_40"/>
			</g>
			<g id="Ellipse-1-copy-121" serif:id="Ellipse 1 copy 12" stroke-width="0">
				<circle class="st9" cx="-178.1999969482422" cy="174.3000030517578" r="2.299999952316284" transform="matrix(0.500938, 0, 0, 0.500938, 251.773, 0.255597)" stroke-width="0" id="svg_41"/>
			</g>
		</g>
		<g id="svg_42">
			<g id="Ellipse-12" serif:id="Ellipse 1" stroke-width="0">
				<circle class="st3" cx="107.19999694824219" cy="24.600000381469727" r="2.299999952316284" transform="matrix(0.500938, 0, 0, 0.500938, 0.289201, 150.598)" stroke-width="0" id="svg_43"/>
			</g>
			<g id="Ellipse-1-copy2" serif:id="Ellipse 1 copy" stroke-width="0">
				<circle class="st4" cx="52.5" cy="-51.400001525878906" r="2.299999952316284" transform="matrix(0.500938, 0, 0, 0.500938, 0.289201, 150.598)" stroke-width="0" id="svg_44"/>
			</g>
			<g id="Ellipse-1-copy-62" serif:id="Ellipse 1 copy 6" stroke-width="0">
				<circle class="st4" cx="179.8000030517578" cy="42.400001525878906" r="2.299999952316284" transform="matrix(0.500938, 0, 0, 0.500938, 0.289201, 150.598)" stroke-width="0" id="svg_45"/>
			</g>
			<g id="Ellipse-1-copy-22" serif:id="Ellipse 1 copy 2" stroke-width="0">
				<circle class="st5" cx="215.5" cy="-4.800000190734863" r="2.299999952316284" transform="matrix(0.500938, 0, 0, 0.500938, 0.289201, 150.598)" stroke-width="0" id="svg_46"/>
			</g>
			<g id="Ellipse-1-copy-32" serif:id="Ellipse 1 copy 3" stroke-width="0">
				<circle class="st6" cx="219.5" cy="-73.9000015258789" r="2.299999952316284" transform="matrix(0.500938, 0, 0, 0.500938, 0.289201, 150.598)" stroke-width="0" id="svg_47"/>
			</g>
			<g id="Ellipse-1-copy-72" serif:id="Ellipse 1 copy 7" stroke-width="0">
				<circle class="st4" cx="270.20001220703125" cy="-56.099998474121094" r="2.299999952316284" transform="matrix(0.500938, 0, 0, 0.500938, 0.289201, 150.598)" stroke-width="0" id="svg_48"/>
			</g>
			<g id="Ellipse-1-copy-82" serif:id="Ellipse 1 copy 8" stroke-width="0">
				<circle class="st4" cx="278.8999938964844" cy="36.099998474121094" r="2.299999952316284" transform="matrix(0.500938, 0, 0, 0.500938, 0.289201, 150.598)" stroke-width="0" id="svg_49"/>
			</g>
			<g id="Ellipse-1-copy-92" serif:id="Ellipse 1 copy 9" stroke-width="0">
				<circle class="st4" cx="156.1999969482422" cy="-43.400001525878906" r="2.299999952316284" transform="matrix(0.500938, 0, 0, 0.500938, 0.289201, 150.598)" stroke-width="0" id="svg_50"/>
			</g>
			<g id="Ellipse-1-copy-102" serif:id="Ellipse 1 copy 10" stroke-width="0">
				<circle class="st7" cx="-1.100000023841858" cy="-11.699999809265137" r="2.299999952316284" transform="matrix(0.500938, 0, 0, 0.500938, 0.289201, 150.598)" stroke-width="0" id="svg_51"/>
			</g>
			<g id="Ellipse-1-copy-142" serif:id="Ellipse 1 copy 14" stroke-width="0">
				<circle class="st7" cx="288.1000061035156" cy="-11.699999809265137" r="2.299999952316284" transform="matrix(0.500938, 0, 0, 0.500938, 0.289201, 150.598)" stroke-width="0" id="svg_52"/>
			</g>
			<g id="Ellipse-1-copy-42" serif:id="Ellipse 1 copy 4" stroke-width="0">
				<circle class="st8" cx="116.4000015258789" cy="-91.80000305175781" r="2.299999952316284" transform="matrix(0.500938, 0, 0, 0.500938, 0.289201, 150.598)" stroke-width="0" id="svg_53"/>
			</g>
			<g id="Ellipse-1-copy-112" serif:id="Ellipse 1 copy 11" stroke-width="0">
				<circle class="st9" cx="34.599998474121094" cy="-127.5" r="2.299999952316284" transform="matrix(0.500938, 0, 0, 0.500938, 0.289201, 150.598)" stroke-width="0" id="svg_54"/>
			</g>
			<g id="Ellipse-1-copy-132" serif:id="Ellipse 1 copy 13" stroke-width="0">
				<circle class="st4" cx="34.599998474121094" cy="45.29999923706055" r="2.299999952316284" transform="matrix(0.500938, 0, 0, 0.500938, 0.289201, 150.598)" stroke-width="0" id="svg_55"/>
			</g>
			<g id="Ellipse-1-copy-122" serif:id="Ellipse 1 copy 12" stroke-width="0">
				<circle class="st9" cx="34.599998474121094" cy="47" r="2.299999952316284" transform="matrix(0.500938, 0, 0, 0.500938, 0.289201, 150.598)" stroke-width="0" id="svg_56"/>
			</g>
		</g>
		<g id="svg_57">
			<g id="Ellipse-13" serif:id="Ellipse 1" stroke-width="0">
				<circle class="st3" cx="-105.5999984741211" cy="24.600000381469727" r="2.299999952316284" transform="matrix(0.500938, 0, 0, 0.500938, 251.773, 150.598)" stroke-width="0" id="svg_58"/>
			</g>
			<g id="Ellipse-1-copy3" serif:id="Ellipse 1 copy" stroke-width="0">
				<circle class="st4" cx="-160.39999389648438" cy="-51.400001525878906" r="2.299999952316284" transform="matrix(0.500938, 0, 0, 0.500938, 251.773, 150.598)" stroke-width="0" id="svg_59"/>
			</g>
			<g id="Ellipse-1-copy-63" serif:id="Ellipse 1 copy 6" stroke-width="0">
				<circle class="st4" cx="-33.099998474121094" cy="42.400001525878906" r="2.299999952316284" transform="matrix(0.500938, 0, 0, 0.500938, 251.773, 150.598)" stroke-width="0" id="svg_60"/>
			</g>
			<g id="Ellipse-1-copy-23" serif:id="Ellipse 1 copy 2" stroke-width="0">
				<circle class="st5" cx="2.700000047683716" cy="-4.800000190734863" r="2.299999952316284" transform="matrix(0.500938, 0, 0, 0.500938, 251.773, 150.598)" stroke-width="0" id="svg_61"/>
			</g>
			<g id="Ellipse-1-copy-33" serif:id="Ellipse 1 copy 3" stroke-width="0">
				<circle class="st6" cx="6.699999809265137" cy="-73.9000015258789" r="2.299999952316284" transform="matrix(0.500938, 0, 0, 0.500938, 251.773, 150.598)" stroke-width="0" id="svg_62"/>
			</g>
			<g id="Ellipse-1-copy-73" serif:id="Ellipse 1 copy 7" stroke-width="0">
				<circle class="st4" cx="57.400001525878906" cy="-56.099998474121094" r="2.299999952316284" transform="matrix(0.500938, 0, 0, 0.500938, 251.773, 150.598)" stroke-width="0" id="svg_63"/>
			</g>
			<g id="Ellipse-1-copy-83" serif:id="Ellipse 1 copy 8" stroke-width="0">
				<circle class="st4" cx="66" cy="36.099998474121094" r="2.299999952316284" transform="matrix(0.500938, 0, 0, 0.500938, 251.773, 150.598)" stroke-width="0" id="svg_64"/>
			</g>
			<g id="Ellipse-1-copy-93" serif:id="Ellipse 1 copy 9" stroke-width="0">
				<circle class="st4" cx="-56.70000076293945" cy="-43.400001525878906" r="2.299999952316284" transform="matrix(0.500938, 0, 0, 0.500938, 251.773, 150.598)" stroke-width="0" id="svg_65"/>
			</g>
			<g id="Ellipse-1-copy-103" serif:id="Ellipse 1 copy 10" stroke-width="0">
				<circle class="st7" cx="-213.89999389648438" cy="-11.699999809265137" r="2.299999952316284" transform="matrix(0.500938, 0, 0, 0.500938, 251.773, 150.598)" stroke-width="0" id="svg_66"/>
			</g>
			<g id="Ellipse-1-copy-143" serif:id="Ellipse 1 copy 14" stroke-width="0">
				<circle class="st7" cx="75.19999694824219" cy="-11.699999809265137" r="2.299999952316284" transform="matrix(0.500938, 0, 0, 0.500938, 251.773, 150.598)" stroke-width="0" id="svg_67"/>
			</g>
			<g id="Ellipse-1-copy-43" serif:id="Ellipse 1 copy 4" stroke-width="0">
				<circle class="st8" cx="-96.4000015258789" cy="-91.80000305175781" r="2.299999952316284" transform="matrix(0.500938, 0, 0, 0.500938, 251.773, 150.598)" stroke-width="0" id="svg_68"/>
			</g>
			<g id="Ellipse-1-copy-113" serif:id="Ellipse 1 copy 11" stroke-width="0">
				<circle class="st9" cx="-178.1999969482422" cy="-127.5" r="2.299999952316284" transform="matrix(0.500938, 0, 0, 0.500938, 251.773, 150.598)" stroke-width="0" id="svg_69"/>
			</g>
			<g id="Ellipse-1-copy-133" serif:id="Ellipse 1 copy 13" stroke-width="0">
				<circle class="st4" cx="-178.1999969482422" cy="45.29999923706055" r="2.299999952316284" transform="matrix(0.500938, 0, 0, 0.500938, 251.773, 150.598)" stroke-width="0" id="svg_70"/>
			</g>
			<g id="Ellipse-1-copy-123" serif:id="Ellipse 1 copy 12" stroke-width="0">
				<circle class="st9" cx="-178.1999969482422" cy="47" r="2.299999952316284" transform="matrix(0.500938, 0, 0, 0.500938, 251.773, 150.598)" stroke-width="0" id="svg_71"/>
			</g>
		</g>
		<g id="svg_72">
			<g stroke-width="0" id="svg_73">
				<circle id="Ellipse-1-copy-104" serif:id="Ellipse 1 copy 10" class="st7" cx="-426.29998779296875" cy="115.5" r="2.299999952316284" transform="matrix(0.500938, 0, 0, 0.500938, 502.721, 0.254881)" stroke-width="0">
				</circle>
			</g>
		</g>
		<g id="svg_74">
			<g stroke-width="0" id="svg_75">
				<circle id="Ellipse-1-copy-105" serif:id="Ellipse 1 copy 10" class="st7" cx="-426.29998779296875" cy="-11.699999809265137" r="2.299999952316284" transform="matrix(0.500938, 0, 0, 0.500938, 502.721, 150.597)" stroke-width="0">
				</circle>
			</g>
		</g>
	</g>
</g><circle id="Ellipse-14" serif:id="Ellipse 1" class="st3" cx="107.30000305175781" cy="152.10000610351562" r="2.299999952316284">
</circle><circle id="Ellipse-1-copy4" serif:id="Ellipse 1 copy" class="st4" cx="52.599998474121094" cy="76" r="2.299999952316284">
</circle><circle id="Ellipse-1-copy-64" serif:id="Ellipse 1 copy 6" class="st4" cx="179.89999389648438" cy="169.89999389648438" r="2.299999952316284">
</circle><circle id="Ellipse-1-copy-24" serif:id="Ellipse 1 copy 2" class="st5" cx="215.60000610351562" cy="122.69999694824219" r="2.299999952316284">
</circle><circle id="Ellipse-1-copy-34" serif:id="Ellipse 1 copy 3" class="st6" cx="219.60000610351562" cy="53.599998474121094" r="2.299999952316284">
</circle><circle id="Ellipse-1-copy-74" serif:id="Ellipse 1 copy 7" class="st4" cx="270.29998779296875" cy="71.4000015258789" r="2.299999952316284">
</circle><circle id="Ellipse-1-copy-84" serif:id="Ellipse 1 copy 8" class="st4" cx="278.8999938964844" cy="163.60000610351562" r="2.299999952316284">
</circle><circle id="Ellipse-1-copy-94" serif:id="Ellipse 1 copy 9" class="st4" cx="156.3000030517578" cy="84.0999984741211" r="2.299999952316284">
</circle><circle id="Ellipse-1-copy-106" serif:id="Ellipse 1 copy 10" class="st7" cx="-1" cy="115.80000305175781" r="2.299999952316284">
</circle><circle id="Ellipse-1-copy-144" serif:id="Ellipse 1 copy 14" class="st7" cx="288.20001220703125" cy="115.80000305175781" r="2.299999952316284">
</circle><circle id="Ellipse-1-copy-44" serif:id="Ellipse 1 copy 4" class="st8" cx="116.5" cy="35.70000076293945" r="2.299999952316284">
</circle><circle id="Ellipse-1-copy-114" serif:id="Ellipse 1 copy 11" class="st9" cx="34.70000076293945" cy="0" r="2.299999952316284">
</circle><circle id="Ellipse-1-copy-134" serif:id="Ellipse 1 copy 13" class="st4" cx="34.70000076293945" cy="172.8000030517578" r="2.299999952316284">
</circle><circle id="Ellipse-1-copy-124" serif:id="Ellipse 1 copy 12" class="st9" cx="34.70000076293945" cy="174.5" r="2.299999952316284">
</circle><path class="st10" d="M30.9,0h8.9l70.6,31.7L70.8,0h2.8l40.4,32.3L109,0h1.7l5.1,33.4L173.7,0h3.5l-60.4,34.8l0.1,0.1l49.4,8.6  L178.5,0h1.8L168,43.7l49.5,8.6l-0.1-0.2l0.4-0.2L180.9,0h2.1l35.4,49.9L216.6,0h1.7l1.9,48.8l16-48.8h1.8l-16.4,50l52.4-26.5  L276.8,0h1.7l-2.7,22.5l13-6.6v1.9l-13.2,6.7l-5.4,45L288.8,44v2.9l-17.3,23.7l-1.4-1l-0.1,0.5l1.1,0.4l-0.3,0.8l0,0l0.9-0.1  l0.5,4.6l16.2,38.9l-1.6,0.7l-14-33.7l3.5,34.5l11.3-0.9l0,0.3l0.9,0.2l-7.7,45.6l0.1,0.9l7.9,1.8v1.8l-8.9-2l-0.2,0.4l-0.1-0.1l0,0  l0.1,0.8l-0.1,0l-0.9,7.8h-1.7l0.9-7.7l-38.1,2.6l-1.7,5h-1.8l1.6-4.9l-19.6,1.4l0.1,3.6h-1.7l-0.1-3.4l-34.1,2.4l0.8,1.1h-2.1  l-0.7-0.9l-0.9,0.1l0-0.4l-2.2,1.2h-3.5l3.6-2.1l-69.6-17.5l3,19.6H109l-3-19.5l-41.9,11.9l9.5,7.6h-2.8l-8.8-7l-24.8,7h-5.1  l-31.4-7.1v-1.8l32.3,7.3L0.8,116.9v-6.2L31.8,4.3L0.8,46.9V44L30.9,2.6L0.8,17.9V16L31.9,0.2L30.9,0z M35.2,171.6l25.2-7.1  L4.3,119.5L35.2,171.6z M182.2,169l-0.3,1.1l34.5-2.4l-1.6-43.1L182.2,169z M167.7,122.5l12.5,46.2l0.4-0.5l17.7-55l-4.9-3.2  L167.7,122.5z M136.6,137.6l41.8,30.9l-12.3-45.2L136.6,137.6z M108.3,151.4l0.1,0.2l67.2,16.9l-40.6-30L108.3,151.4z M218.1,167.5  l20.2-1.4l7.5-22.9l-29.4-18.4L218.1,167.5z M240.2,166l37.7-2.6l0-0.2l-30.6-19.1L240.2,166z M62.5,163.9l42-11.9L4,117L62.5,163.9  z M183.9,163.7l29.8-40.7l-13.8-8.9L183.9,163.7z M255.3,119.8l-7.4,22.6l31,19.4l0.1-0.4l-4.3-43.2L255.3,119.8z M276.4,118.1  l3.7,36.8l6.3-37.6L276.4,118.1z M6.9,116.2l99,34.4l0.1,0l-23.6-50L6.9,116.2z M107.4,149.6l14.8-20.5l-37.5-27.7L107.4,149.6z   M110.4,148.5l22.9-11.1l-9.7-7.2L110.4,148.5z M217.3,122.8l-0.3,0.3l29.4,18.4l7.1-21.6L217.3,122.8z M124.6,128.7l10.5,7.7  l30.6-14.9L156,85.9l-0.4-0.2L124.6,128.7z M85.7,100l37.5,27.7l30-41.6L85.7,100z M216.6,121.2l49.6-46.5l-63.5,30.9l-2.2,6.9  l15.1,9.7l0.1-0.1l-0.1-0.8L216.6,121.2z M219.3,120.9l34.7-2.8l14.1-43L219.3,120.9z M167.3,120.8l24.5-11.9l-33.6-21.7  L167.3,120.8z M255.9,118l18.6-1.5l-4-40.2l-0.5-1.3L255.9,118z M2.5,114.7l1.2,0.4l77.9-16L52.2,77.4L2.5,114.7z M1.9,113  l49.8-37.4l-17-75.2L1.9,113z M195.3,109.1l3.6,2.3l1.6-4.9L195.3,109.1z M157.6,84.8l36,23.2l7.6-3.7l8.1-25.2L157.6,84.8z   M211.2,78.9l-7.9,24.4L266,72.8L211.2,78.9z M83.1,98.1l0.7,0.5l67.8-14l-77.7-6.1L83.1,98.1z M80.2,95.9l-8.3-17.5l-17.3-1.4  L80.2,95.9z M165.8,45.1l-47.3-8.2l37.7,46.4l-0.3-0.6l0.6-0.3l-1.1-0.3L165.8,45.1z M68.5,67l4.6,9.7l80.7,6.3l-37.5-46.2L68.5,67z   M159.7,82.8l50.2-5.6l6.9-21.5L159.7,82.8z M157.2,82.1l59.6-28.2l-49.3-8.5L157.2,82.1z M220.4,55.1l-0.5,0l-0.1,0.3l-0.8-0.3  l-0.2,0l-7,21.9L267,71l-46.6-16.2L220.4,55.1z M55.2,75.4l15.8,1.2L67,68L55.2,75.4z M52.2,75.5l0.4,0.5L52.2,75.5L52.2,75.5z   M53.3,74.6l13-8.2L37.8,6.2L53.3,74.6z M220.8,52.3l-0.2,0.7l47.8,16.7l5.3-44.1L220.8,52.3z M114.4,35.4L37.2,0.7l30.6,64.8  L115,35.6l-0.1,0l-0.5,0.1L114.4,35.4z" id="svg_76"/></g></svg>